<svg version="1.1" xmlns="http://www.w3.org/2000/svg" viewBox="0 0 68 71" width="68" height="71" filter="invert(93%) hue-rotate(180deg)">
  <!-- svg-source:excalidraw -->
  
  <defs>
    <style className="style-fonts">
      @font-face {
        font-family: "Virgil";
        src: url("https://excalidraw.com/Virgil.woff2");
      }
      @font-face {
        font-family: "Cascadia";
        src: url("https://excalidraw.com/Cascadia.woff2");
      }
      @font-face {
        font-family: "Assistant";
        src: url("https://excalidraw.com/Assistant-Regular.woff2");
      }
    </style>
    
  </defs>
  <rect x="0" y="0" width="68" height="71" fill="#ffffff"></rect><g stroke-linecap="round" transform="translate(10 10) rotate(0 24 25.5)"><path d="M30.95 1.36 C35.39 2.67, 40.59 6.84, 43.25 11.53 C45.92 16.22, 47.36 24.17, 46.93 29.49 C46.5 34.82, 44.2 39.8, 40.7 43.5 C37.19 47.19, 30.97 51.42, 25.88 51.67 C20.8 51.91, 14.53 48.54, 10.19 44.95 C5.84 41.36, 0.93 35.25, -0.19 30.13 C-1.31 25.02, 1.12 19.12, 3.46 14.26 C5.8 9.4, 8.51 3.01, 13.84 0.96 C19.17 -1.09, 31.52 1.22, 35.45 1.96 C39.39 2.69, 37.84 4.84, 37.43 5.36 M32.2 1.04 C36.58 2.63, 41.96 7.52, 44.37 12.23 C46.79 16.94, 47.51 23.82, 46.67 29.33 C45.83 34.84, 43.13 41.76, 39.34 45.29 C35.55 48.82, 29.37 50.69, 23.95 50.5 C18.54 50.31, 10.66 47.79, 6.85 44.13 C3.04 40.47, 1.49 33.73, 1.09 28.54 C0.69 23.35, 2.12 17.67, 4.45 12.99 C6.77 8.3, 10.54 2.44, 15.03 0.45 C19.52 -1.55, 28.35 0.67, 31.38 1.02 C34.41 1.38, 33.27 1.88, 33.2 2.58" stroke="none" stroke-width="0" fill="#a5d8ff"></path><path d="M22.36 0.15 C27.19 -0.67, 33.7 1.8, 38.03 4.93 C42.35 8.06, 46.99 13.73, 48.31 18.91 C49.64 24.09, 48.35 31.12, 45.97 36.01 C43.59 40.89, 38.89 46.06, 34.02 48.22 C29.16 50.38, 21.67 50.45, 16.77 48.97 C11.87 47.49, 7.43 43.87, 4.64 39.34 C1.84 34.81, -0.52 27.09, 0.01 21.8 C0.54 16.5, 2.85 11, 7.8 7.58 C12.75 4.16, 24.74 1.77, 29.7 1.29 C34.66 0.81, 37.58 4.19, 37.55 4.68 M31.57 1.49 C36.39 2.65, 43.19 6.02, 45.9 10.86 C48.61 15.71, 48.85 25.14, 47.84 30.55 C46.82 35.95, 43.46 40.11, 39.83 43.27 C36.2 46.43, 31.01 49.06, 26.05 49.51 C21.09 49.96, 14.45 49.35, 10.08 45.95 C5.71 42.55, 0.92 34.39, -0.16 29.1 C-1.24 23.81, 1.01 18.86, 3.59 14.19 C6.18 9.52, 10.5 3.01, 15.38 1.1 C20.25 -0.82, 30.19 2.7, 32.87 2.72 C35.54 2.74, 31.88 1.1, 31.43 1.23" stroke="#2f9e44" stroke-width="2" fill="none"></path></g><g stroke-linecap="round"><g transform="translate(18.225809700957825 30.028226212619728) rotate(0 5.223284107168979 1.0932455108028165)"><path d="M-0.17 -0.54 C1.65 -0.03, 8.6 2.21, 10.42 2.6 M0.74 0.37 C2.53 0.78, 8.33 1.54, 9.98 1.85" stroke="#2f9e44" stroke-width="2" fill="none"></path></g></g><mask></mask><g stroke-linecap="round"><g transform="translate(38.39011578909856 32.21471723422536) rotate(0 4.980340660323918 -1.8220758513380275)"><path d="M0.08 -0.04 C1.71 -0.61, 8.02 -2.88, 9.61 -3.46 M-0.3 -0.37 C1.45 -1.04, 8.45 -3.54, 10.23 -3.99" stroke="#2f9e44" stroke-width="2" fill="none"></path></g></g><mask></mask><g stroke-linecap="round"><g transform="translate(27.214717234225418 45.3336633638591) rotate(0 6.1950578945492225 -0.6073586171126664)"><path d="M-0.16 0.33 C1.74 0.1, 9.71 -0.73, 11.86 -0.95 M0.76 0.02 C2.79 -0.13, 10.85 -1.46, 12.82 -1.78" stroke="#2f9e44" stroke-width="2" fill="none"></path></g></g><mask></mask></svg>