<svg width="164" height="95" viewBox="0 0 164 95" fill="none" xmlns="http://www.w3.org/2000/svg">
<g clip-path="url(#clip0_72_337)">
<path d="M39.7515 70.0172C40.6058 70.6153 42.2103 70.2481 43.0577 70.1397C48.7313 69.414 54.2422 67.8361 59.8646 66.8334C67.4698 65.4771 74.6835 65.5957 82.182 67.262" stroke="black" stroke-width="3" stroke-linecap="round"/>
<path d="M94.856 47.4243C93.2055 50.8524 89.0683 53.4442 86.5903 56.3635C83.0863 60.4915 79.4373 67.3839 81.8146 72.8949C82.3536 74.1444 89.6058 82.982 91.5497 81.0381" stroke="black" stroke-width="3" stroke-linecap="round"/>
<path d="M51.4891 23.8922C51.3725 23.4092 51.6073 23.1452 51.6774 22.7243C51.7494 22.2926 51.8601 22.4448 52.1564 22.1485C52.5976 21.7073 53.7352 21.6706 54.3413 21.5242C55.1868 21.3202 57.3981 21.2949 57.3981 22.536C57.3981 22.9654 57.5058 23.531 57.2797 23.9137C57.1165 24.1899 56.9138 24.2423 56.9138 24.5702" stroke="white" stroke-width="3" stroke-linecap="round"/>
<path d="M56.1388 24.8609C56.814 23.7355 55.8965 22.5599 55.6544 21.4705" stroke="white" stroke-width="3" stroke-linecap="round"/>
<path d="M51.266 23.1656C51.308 23.1713 51.1159 23.4622 51.0869 23.4912" stroke="white" stroke-width="3" stroke-linecap="round"/>
<path d="M51.6891 23.947C51.677 23.9609 51.7242 23.9331 51.7379 23.9208C51.8585 23.8131 51.937 23.6816 52.0147 23.5419C52.0607 23.4591 52.1119 23.3825 52.172 23.3095C52.1913 23.2861 52.0574 23.371 52.0472 23.3773" stroke="white" stroke-width="3" stroke-linecap="round"/>
<path d="M53.2518 21.4567C52.9681 22.0023 52.5317 22.4576 52.2119 22.9831C52.1561 23.0747 52.1121 23.1599 52.031 23.2308" stroke="white" stroke-width="3" stroke-linecap="round"/>
<path d="M52.2914 23.3447C52.637 23.3668 52.9314 23.088 53.2056 22.9206C53.3952 22.8049 53.5969 22.8096 53.7943 22.7226C53.8557 22.6954 54.058 22.6276 54.0764 22.5571C54.0869 22.517 54.0946 22.489 54.1144 22.4495" stroke="black" stroke-width="3" stroke-linecap="round"/>
<path d="M50.0126 24.6469C50.153 24.6469 50.2204 24.37 50.3218 24.2888" stroke="white" stroke-width="3" stroke-linecap="round"/>
<path d="M50.6475 24.0446C50.7316 24.0446 50.8383 23.923 50.9061 23.88C51.0472 23.7906 51.153 23.6843 51.2732 23.5681C51.3937 23.4515 51.539 23.3628 51.6856 23.2832C51.845 23.1966 51.9902 23.0844 52.1603 23.0201C52.4701 22.9028 52.766 22.7553 53.0528 22.5905C53.1548 22.5319 53.2503 22.457 53.3548 22.4034C53.4076 22.3763 53.4374 22.3327 53.4887 22.3156C53.5807 22.285 53.5368 22.1424 53.5194 22.0805C53.4879 21.9678 53.5113 21.9725 53.5122 22.0896C53.5139 22.3106 53.49 22.5336 53.429 22.747C53.3647 22.972 53.2342 23.1869 53.098 23.3754C53.045 23.4489 52.9683 23.5549 52.9443 23.6449C52.9188 23.7404 53.0669 23.6944 53.1143 23.6829C53.2768 23.6434 53.4348 23.5695 53.5646 23.4641C53.6704 23.3782 53.809 23.2961 53.8857 23.181C53.9218 23.1268 53.9518 23.0388 54.0258 23.0228C54.1093 23.0047 54.2174 23.2562 54.2528 23.3112C54.3537 23.4683 54.4564 23.6479 54.6064 23.7643C54.9001 23.9923 55.2528 24.1202 55.6065 24.2164C55.8459 24.2816 56.0999 24.3032 56.3444 24.343C56.5627 24.3786 56.7696 24.419 56.9909 24.419C57.198 24.419 57.4458 24.2355 57.5669 24.079C57.6498 23.9719 57.6738 23.8319 57.699 23.7028C57.7257 23.5658 57.7631 23.4073 57.7397 23.2669C57.705 23.0589 57.4256 22.9507 57.2658 22.8727C56.8896 22.6889 56.4819 22.6007 56.0821 22.482C55.7342 22.3787 55.4214 22.2238 55.1345 22C55.0025 21.8972 54.8838 21.7797 54.7664 21.6609C54.7254 21.6195 54.679 21.553 54.619 21.538" stroke="white" stroke-width="3" stroke-linecap="round"/>
<path d="M51.7267 24.296C51.7673 24.2858 51.7981 24.263 51.8341 24.2414C51.9846 24.1511 52.1392 24.0677 52.2906 23.9789C52.5623 23.8197 52.8281 23.645 53.1145 23.5129C53.4752 23.3464 53.8449 23.303 54.2355 23.3145C54.5315 23.3232 54.7617 23.4957 55.0056 23.6385C55.1763 23.7384 55.3424 23.8447 55.502 23.9616C55.8278 24.2002 55.9392 24.5746 56.0538 24.944C56.102 25.0991 56.1812 25.2382 56.2271 25.397C56.2734 25.5573 56.3579 25.716 56.3579 25.8865" stroke="black" stroke-width="3" stroke-linecap="round"/>
<path d="M50.5559 23.6624C50.5532 23.7327 50.4792 23.7822 50.4387 23.8329" stroke="white" stroke-width="3" stroke-linecap="round"/>
<path d="M50.1616 24.0673C50.1788 24.0769 50.2096 24.0585 50.2214 24.0525C50.3547 23.9851 50.4738 23.887 50.5968 23.8033C50.7593 23.6927 50.9296 23.5976 51.0947 23.4919C51.1418 23.4617 51.1748 23.415 51.2232 23.3894C51.3056 23.3458 51.4148 23.364 51.5044 23.364" stroke="white" stroke-width="3" stroke-linecap="round"/>
<path d="M51.579 23.3746C51.8165 23.6761 52.1901 23.8485 52.4765 24.0957C52.5911 24.1946 52.7029 24.3251 52.7287 24.48C52.7344 24.5141 52.7803 24.4445 52.7844 24.4403C52.8526 24.37 52.928 24.3167 53.0082 24.2615C53.1385 24.1718 53.3228 24.3406 53.4291 24.4143C53.5349 24.4875 53.6231 24.5831 53.6932 24.6907C53.7187 24.7299 53.7413 24.7704 53.7518 24.8163C53.7571 24.8395 53.7488 24.9053 53.7636 24.8867C53.7785 24.8682 53.7809 24.8425 53.7897 24.8204C53.8276 24.7251 53.8371 24.7039 53.8785 24.6025C53.9604 24.4017 54.0398 24.1997 54.1165 23.9969C54.16 23.8819 54.1666 23.7633 54.2527 23.6718C54.2732 23.65 54.298 23.6559 54.3202 23.6766C54.4028 23.7536 54.3693 23.899 54.3462 23.9915C54.2861 24.2321 54.1741 24.4551 54.0798 24.683C54.0305 24.802 54.003 24.9245 53.9626 25.046C53.9584 25.0585 53.9297 25.1047 53.9584 25.1028C54.0007 25.1 54.0815 25.0804 54.1082 25.0744C54.3642 25.0167 54.6201 24.9528 54.8708 24.8749C55.3709 24.7193 55.8861 24.4885 56.1448 24.0046C56.1993 23.9026 56.2069 23.7868 56.1786 23.6748C56.1463 23.5469 56.0638 23.4324 55.9797 23.3338C55.7173 23.0264 55.3831 22.7888 54.9856 22.6961C54.6396 22.6155 54.2743 22.6127 53.9211 22.618C53.5744 22.6232 53.2301 22.6423 52.8904 22.7151C52.6773 22.7607 52.4701 22.8247 52.261 22.8844" stroke="white" stroke-width="3" stroke-linecap="round"/>
<path d="M55.6808 23.3619C55.7618 23.4464 55.8538 23.5151 55.9451 23.5885C56.2619 23.8429 56.5753 24.1017 56.8907 24.358C57.13 24.5523 57.4136 24.7473 57.5317 25.0447C57.6018 25.2214 57.5901 25.4086 57.5901 25.5949" stroke="black" stroke-width="3" stroke-linecap="round"/>
<path d="M56 26.9996C56.0367 27.0101 56.2471 26.8115 56.2607 26.8013C56.3962 26.6999 56.5782 26.5454 56.7664 26.5195C56.8741 26.5046 56.9845 26.538 57.0922 26.5314C57.1558 26.5275 57.1775 26.5155 57.2312 26.4762C57.4176 26.34 57.5603 26.1478 57.677 25.9662C57.8355 25.7196 58.012 25.4021 57.9994 25.1103C57.9978 25.0748 57.9662 25.0762 57.9325 25.0671C57.7337 25.0134 57.5032 25.0191 57.2982 25" stroke="black" stroke-width="3" stroke-linecap="round"/>
<path d="M54.9365 23.2973C54.9816 23.3505 55.078 23.175 55.0947 23.1481C55.1893 22.9956 55.2182 22.8223 55.208 22.6446C55.2019 22.5378 55.1402 22.5809 55.1613 22.6554C55.2015 22.7978 55.3324 22.9257 55.4291 23.0258C55.7338 23.3408 56.0739 23.6181 56.373 23.9391C56.5364 24.1144 56.6815 24.3377 56.8845 24.4731C56.9646 24.5265 57.0858 24.5272 57.1569 24.5881C57.2293 24.6502 57.2816 24.7491 57.3385 24.8237C57.419 24.9293 57.5059 25.0299 57.5839 25.1374C57.6007 25.1606 57.7962 25.4977 57.8347 25.4637C57.9304 25.3792 57.9557 25.1302 57.9677 25.0331C58.0103 24.688 57.9976 24.3374 57.939 23.9948C57.8944 23.7345 57.808 23.4817 57.6297 23.2829C57.6059 23.2563 57.5383 23.1759 57.5147 23.2487C57.4688 23.3901 57.5047 23.5623 57.5434 23.6973C57.7014 24.2483 58.0366 24.7207 58.285 25.2309C58.4743 25.6195 58.7388 26.212 58.5026 26.6377C58.3925 26.8362 58.2367 27.0201 58.1008 27.2022C57.944 27.4122 57.7663 27.5906 57.5578 27.747" stroke="white" stroke-width="3" stroke-linecap="round"/>
<path d="M55.3946 5.34058C54.2886 5.46346 52.8683 7.5635 52.4269 8.44635C51.5314 10.2374 51.0728 11.9298 51.823 13.8469C52.3479 15.1885 53.4216 16.2108 54.9288 16.2108C56.4787 16.2108 60.985 18.0623 60.985 15.9002" stroke="white" stroke-width="3" stroke-linecap="round"/>
<path d="M56.0747 12.4992C55.5186 11.4983 52.9566 9.06592 55.7695 9.06592C57.3111 9.06592 57.448 11.1152 57.448 12.4992" stroke="#002BFF" stroke-width="3" stroke-linecap="round"/>
<path d="M87.5 34.5C87.6953 35.3787 88.5667 35.1588 89.2248 35.1588C90.8468 35.1588 92.5827 33.0509 93.3447 31.7446C93.8841 30.8199 94.4542 30.4403 94.1076 29.1696C93.8115 28.0837 90.8778 26.8341 90 27.5M87.5 34C88.1164 33.9413 91.1613 32.0688 91.7806 32.0688" stroke="#00FF00" stroke-width="3" stroke-linecap="round"/>
<path d="M92 31C88 28 87.8348 32.0022 87.5 31.5" stroke="#00FF00" stroke-width="3" stroke-linecap="round"/>
<path d="M53.9535 26C53.9535 27.7748 54.2929 29.4548 53.1377 30.9673C52.4303 31.8936 51.6944 33.8784 51.6944 34.9673C51.6944 37.4287 51.6134 39.9836 50 42" stroke="#002AFF" stroke-width="3" stroke-linecap="round"/>
<path d="M54 24C51.672 24 50 28.1138 50 31" stroke="#002AFF" stroke-width="3" stroke-linecap="round"/>
<path d="M89.7646 31.0055C89.746 31.2284 89.5927 31.4541 89.4861 31.646" stroke="#00FF00" stroke-width="3" stroke-linecap="round"/>
<path d="M88.6785 28.527H88.7063" stroke="#00FF00" stroke-width="3" stroke-linecap="round"/>
<path d="M88.2436 25.9336C87.1371 27.8211 82.6445 37.5832 86.8353 37.5056C93.2363 37.387 100.31 26.1585 90.9988 25.3826" stroke="black" stroke-width="3" stroke-linecap="round"/>
<path d="M52.115 28.3303C52.4272 28.545 51.9809 29.1841 51.8653 29.4258C51.6647 29.8453 51.3774 30.2666 51.1069 30.6554C50.7235 31.2065 50.8376 32.0086 50.542 32.5998" stroke="#002AFF" stroke-width="3" stroke-linecap="round"/>
<path d="M58.8 12.7692C58.9788 12.8835 59.3157 12.9277 59.0809 13.1624" stroke="#002AFF" stroke-width="3" stroke-linecap="round"/>
<path d="M56.3263 15.2791C52.3988 14.4375 50.4313 9.40894 54.4455 7.65271C55.3015 7.27823 55.8857 7.00153 56.8094 7.51468C57.7893 8.05905 59.6589 10.4378 59.9842 11.4832C60.2763 12.4222 61.0535 13.0365 60.2257 13.8643C59.3597 14.7303 58.7093 14.658 57.5686 14.658" stroke="black" stroke-width="3" stroke-linecap="round"/>
<path d="M51 25.0001C51.2132 24.5703 52.4295 22.5215 52.6898 22.348C52.9279 22.1893 53.1525 22.0088 53.3997 22.0006C53.6722 21.9915 53.7286 21.9734 54 22C54.1808 22.0178 54.5689 21.8753 55.1274 22.142C55.5269 22.4331 55.6361 22.5977 55.8817 23.5001C55.9832 23.873 56 23.5001 56 24.0001C56.0521 24.1287 55.4427 27.8931 55.5 28" stroke="black" stroke-width="3" stroke-linecap="round"/>
</g>
<path d="M55.5 28C53.637 38.0136 50.9012 45.8683 48.0785 55.6594C46.2437 62.0239 44.7142 68.5172 42.2313 74.6705C39.8562 80.5567 36.213 82.5382 30.2614 84.8342C28.339 85.5759 22.2618 86.5486 24.3223 86.5486" stroke="black" stroke-width="3" stroke-linecap="round"/>
<path d="M51.5 24C47.0891 32.116 48.6399 45.3581 53.1602 52.996C58.3445 61.7556 65.6102 69.716 72.508 77.1195C73.9209 78.636 81.4953 88.0632 84.3861 87.0996" stroke="black" stroke-width="3" stroke-linecap="round"/>
<path d="M120.145 41C119.572 57.6 116.417 74.0425 115 90.5775" stroke="black" stroke-width="3" stroke-linecap="round"/>
<path d="M120.145 41.4677C128.23 43.4889 136.328 50.0513 142.881 54.8754C144.845 56.3211 149.408 59.0685 149.819 62.047C150.251 65.1903 145.325 68.4539 143.323 69.8942C136.273 74.9651 127.804 77.0138 119.209 77.0138" stroke="black" stroke-width="3" stroke-linecap="round"/>
<path d="M143.998 77.0139C138.978 77.0139 135.161 78.8171 130.954 81.4312C130.285 81.8471 123.374 85.5364 125.497 87.5634C126.281 88.3113 129.169 88.0519 130.019 88.0311C133.142 87.955 136.493 87.4222 139.269 85.9004C142.105 84.3457 143.53 81.0851 143.53 77.9493" stroke="black" stroke-width="3" stroke-linecap="round"/>
<path d="M143.53 77.0139C144.084 79.5744 144.607 82.175 145.505 84.6012C145.948 85.7965 147.676 85.4327 148.675 85.4327" stroke="black" stroke-width="3" stroke-linecap="round"/>
<path d="M159.9 45.2095C157.815 52.0422 155.872 58.8531 153.612 65.6329C152.507 68.948 151.949 72.5887 151.949 76.0785C151.949 77.2049 151.208 82.0219 152.417 82.6264" stroke="black" stroke-width="3" stroke-linecap="round"/>
<defs>
<clipPath id="clip0_72_337">
<rect width="84" height="84" fill="white" transform="translate(39 2)"/>
</clipPath>
</defs>
</svg>
